<?xml version="1.0" encoding="UTF-8"?>
<svg id="Layer_1" xmlns="http://www.w3.org/2000/svg" version="1.1" viewBox="0 0 113.39 56.69">
  <!-- Generator: Adobe Illustrator 30.1.0, SVG Export Plug-In . SVG Version: 2.1.1 Build 136)  -->
  <defs>
    <style>
      .st0 {
        fill: #be5227;
      }

      .st1 {
        fill: #4981c2;
        font-family: Gabriola, Gabriola;
        font-size: 24px;
        stroke: #fff;
        stroke-miterlimit: 10;
        stroke-width: .21px;
      }
    </style>
  </defs>
  <text class="st1" transform="translate(45.92 44.51)"><tspan x="0" y="0">raftify</tspan></text>
  <path class="st0" d="M44.19,41.98c.98-1.68,1.68,5.57-4.6,9.38-5.29,3.2-11.96,1.99-16.21-2.47-1.94-2.03-3.36-4.29-3.96-7.25l-6.57,2.73c-.12-.73,3.07-1.52,4.22-2.56.46-.42,1.96-.43,2.08-1.27l-.05-2.84c-.01-.82.1-1.51.35-2.37,1.91-6.77,7.95-11.21,14.97-11.19,4.99.02,10.6,2.37,13.19,2.54,1.13.08,2.33-.97,3.35-1.43,3.32-1.51,6.46-3,9.69-4.57l5.22-2.53,6.89-3.24c-1.06-3-3.55-5.57-6.83-6.19-.01,2.09-1.31,5.11-3.28,5.25-.68.05-1.27-.06-1.62-.31-.52-.38-.83-1.33-.69-2.03.46-2.28,2.77-3.65,5.13-3.36-.19-2.05-1.48-5.88-3.07-6.96-.21-.14.14-.51.28-.42,1.49.95,3.14,5.43,3.34,7.38,3.35.72,5.98,3.13,7.07,6.4.72-.33,3.26-.94,3.2.2-.06,1.29-1.6,1.96-2.71,2.26-.4.77-.29,1.6-.57,2.38-.85,2.35-2.28,4.7-4.35,6.21-5.19,3.8-12.63,3.65-18.79,2.16l-18.16,8.25c-2.03.92-4.5,2.29-6.58,2.95-1.93.61-3.59,1.66-5.47,2.41l1.1,2.83c1.2,3.09,5.09,6.72,8.54,7.75,3.51,1.05,7.21.71,10.23-1.26,1.9-1.24,3.37-2.77,4.09-4.91.39-1.15.86-2.24.79-3.49-.01-.2-.25-.35-.21-.43ZM65.29,8.69c-1.96-.15-3.85,1-4.41,2.76-.3.93.15,1.73,1.09,2.01,1.83.55,4.03-3.1,3.32-4.77ZM74.84,15.35c-.68-.18-1.34.12-1.64.55.22.33.28.85.52.32.32-.45.84-.31,1.13-.87ZM70.17,17.71c.63-.07,3.71-.92,2.44-1.87.67-.11-5.44,2.57-2.44,1.87ZM66.41,26.56c3.69-1.28,6.06-5.08,6.41-9l-22.15,9.95c4.05.96,8.29,1.25,12.39.22l3.35-1.17ZM41.31,30.01c1.07-.51,2.02-1.02,3.02-1.47.9-.4,1.78-.68,2.56-1.39l-3.53-.9c-4.53-1.15-9.17-2.6-13.89-.83-3.12,1.17-5.7,2.89-7.49,5.62s-2.81,5.87-2.31,9.4l8.83-4.31,4.09-1.98,8.73-4.15Z"/>
</svg>